<svg width="17" height="12" viewBox="0 0 17 12" fill="none" xmlns="http://www.w3.org/2000/svg">
<path id="Wifi" d="M6.11523 9.08475C7.53496 7.85916 9.61437 7.8593 11.0342 9.08475C11.1056 9.15069 11.1474 9.24428 11.1494 9.34256C11.1513 9.4408 11.1136 9.53545 11.0449 9.60428L8.82129 11.8943C8.75618 11.9615 8.66779 11.9997 8.57519 11.9998C8.48248 11.9998 8.3933 11.9616 8.32812 11.8943L6.10449 9.60428C6.03588 9.53542 5.99801 9.44076 6 9.34256C6.00204 9.24427 6.04375 9.15064 6.11523 9.08475ZM3.10938 6.26151C6.16845 3.35692 10.9058 3.35692 13.9648 6.26151C14.0338 6.32962 14.0732 6.4233 14.0742 6.52128C14.0751 6.61915 14.0373 6.71356 13.9697 6.783L12.6846 8.10819C12.5521 8.24346 12.338 8.24678 12.2021 8.11503C11.1977 7.1866 9.89123 6.67164 8.53613 6.67167C7.18181 6.67224 5.87596 7.18712 4.87207 8.11503C4.7362 8.24677 4.52208 8.24354 4.38965 8.10819L3.10449 6.783C3.03674 6.71365 2.99918 6.61921 3 6.52128C3.00091 6.42332 3.04039 6.32961 3.10938 6.26151ZM0.107427 3.44218C4.79927 -1.14742 12.2007 -1.14736 16.8926 3.44218C16.9605 3.51037 16.9994 3.60373 17 3.70097C17.0004 3.79806 16.9625 3.89184 16.8955 3.96073L15.6094 5.28593C15.4768 5.42191 15.2616 5.42361 15.1269 5.28983C13.3393 3.55507 10.9666 2.5878 8.5 2.58769C6.03337 2.5878 3.66078 3.55506 1.87305 5.28983C1.7385 5.42373 1.52304 5.42208 1.39063 5.28593L0.103521 3.96073C0.036551 3.89181 -0.000494197 3.79803 4.97989e-06 3.70097C0.000631699 3.60373 0.0394612 3.51032 0.107427 3.44218Z" fill="black"/>
</svg>
