<svg width="39" height="8" viewBox="0 0 39 8" fill="none" xmlns="http://www.w3.org/2000/svg">
<g id="Brightness" opacity="0.5">
<path d="M3.03334 2.94999C3.58409 2.74166 3.77049 2.23333 3.77049 1.73333C3.77049 0.833331 3.16044 0.266666 2.19451 0.266666H0V6.00832H2.38092C3.44852 6.00832 4.08399 5.21665 4.08399 4.39165C4.08399 3.76666 3.71965 3.09999 3.03334 2.94999ZM2.18604 0.966664C2.71984 0.966664 2.99945 1.31666 2.99945 1.80833C2.99945 2.29999 2.73678 2.65833 2.21146 2.65833H0.771045V0.966664H2.18604ZM2.21993 5.30832H0.771045V3.32499H2.2623C2.97403 3.32499 3.31295 3.80832 3.31295 4.32499C3.31295 4.85832 2.94014 5.30832 2.21993 5.30832Z" fill="#31456A"/>
<path d="M6.98077 2.01666C6.45545 2.01666 6.07416 2.31666 5.87081 2.99999V2.11666H5.12518V6.00832H5.87081V4.58332C5.87081 3.55832 6.18431 2.71666 6.9723 2.71666C7.12481 2.71666 7.33664 2.74999 7.54847 2.84999L7.66709 2.16666C7.54847 2.09166 7.26038 2.01666 6.98077 2.01666Z" fill="#31456A"/>
<path d="M8.72383 1.16666C9.01191 1.16666 9.24916 0.958331 9.24916 0.683331C9.24916 0.408332 9.01191 0.199999 8.72383 0.199999C8.44422 0.199999 8.20698 0.408332 8.20698 0.683331C8.20698 0.958331 8.44422 1.16666 8.72383 1.16666ZM8.35949 6.00832H9.09664V2.11666H8.35949V6.00832Z" fill="#31456A"/>
<path d="M13.4626 2.11666V2.72499C13.2 2.27499 12.6407 2.01666 12.0476 2.01666C10.9631 2.01666 10.0734 2.82499 10.0734 4.05832C10.0734 5.28332 10.9716 6.10832 12.0561 6.10832C12.6238 6.10832 13.2 5.84165 13.4626 5.39998V5.51665C13.4626 6.83331 12.9204 7.31665 12.0476 7.31665C11.607 7.31665 11.141 7.07498 10.8953 6.63331L10.2683 6.95831C10.6581 7.64165 11.3274 7.99998 12.0476 7.99998C13.3525 7.99998 14.1998 7.30831 14.1998 5.46665V2.11666H13.4626ZM12.1154 5.42498C11.3952 5.42498 10.8191 4.82499 10.8191 4.04999C10.8191 3.26666 11.3952 2.69999 12.1154 2.69999C12.7678 2.69999 13.4626 3.20832 13.4626 4.04999C13.4626 4.88332 12.8272 5.42498 12.1154 5.42498Z" fill="#31456A"/>
<path d="M17.4992 2.01666C17.067 2.01666 16.4231 2.23333 16.1858 2.70833V0H15.4487V6.00832H16.1858V3.89999C16.1858 3.05832 16.8467 2.73333 17.3975 2.73333C17.9482 2.73333 18.3549 3.14999 18.3549 3.79999V6.00832H19.0921V3.75832C19.1006 2.66666 18.482 2.01666 17.4992 2.01666Z" fill="#31456A"/>
<path d="M22.1283 2.11666H21.2725V0.649998H20.5354V2.11666H19.8236V2.74166H20.5354V6.00832H21.2725V2.74166H22.1283V2.11666Z" fill="#31456A"/>
<path d="M24.9607 2.01666C24.5286 2.01666 23.8846 2.23333 23.6474 2.70833V2.11666H22.9102V6.00832H23.6474V3.89999C23.6474 3.05832 24.3083 2.73333 24.859 2.73333C25.4098 2.73333 25.8165 3.14999 25.8165 3.79999V6.00832H26.5536V3.75832C26.5621 2.66666 25.9436 2.01666 24.9607 2.01666Z" fill="#31456A"/>
<path d="M31.4696 4.04999C31.4696 2.81666 30.6308 2.01666 29.5039 2.01666C28.377 2.01666 27.4704 2.81666 27.4704 4.04999C27.4704 5.28332 28.377 6.10832 29.5039 6.10832C30.2665 6.10832 30.9782 5.74165 31.3256 5.06665L30.6817 4.81665C30.4614 5.20832 30.0123 5.42498 29.5293 5.42498C28.8515 5.42498 28.3431 5.06665 28.233 4.37499H31.4527C31.4612 4.26665 31.4696 4.15832 31.4696 4.04999ZM28.2414 3.74999C28.3601 3.04999 28.8345 2.69999 29.5039 2.69999C30.1563 2.69999 30.6393 3.08332 30.7325 3.74999H28.2414Z" fill="#31456A"/>
<path d="M33.5847 6.10832C34.4065 6.10832 35.1183 5.64998 35.1183 4.92499C35.1183 4.48332 34.9064 3.99999 34.0846 3.79999L33.4999 3.65832C33.2457 3.59999 32.9915 3.45832 32.9915 3.19166C32.9915 2.89166 33.2457 2.64999 33.627 2.64999C33.9405 2.64999 34.254 2.84999 34.2625 3.14999H34.9742C34.9742 2.36666 34.2794 2.01666 33.6101 2.01666C32.8136 2.01666 32.2544 2.52499 32.2544 3.16666C32.2544 3.79166 32.6357 4.10832 33.2966 4.28332L33.8388 4.40832C34.1524 4.47499 34.3811 4.62499 34.3811 4.91665C34.3811 5.23332 34.0846 5.47498 33.5847 5.47498C33.1017 5.47498 32.8051 5.19999 32.7967 4.86665H32.1104C32.1442 5.66665 32.8729 6.10832 33.5847 6.10832Z" fill="#31456A"/>
<path d="M37.2327 6.10832C38.0546 6.10832 38.7663 5.64998 38.7663 4.92499C38.7663 4.48332 38.5545 3.99999 37.7326 3.79999L37.148 3.65832C36.8938 3.59999 36.6396 3.45832 36.6396 3.19166C36.6396 2.89166 36.8938 2.64999 37.275 2.64999C37.5886 2.64999 37.9021 2.84999 37.9105 3.14999H38.6223C38.6223 2.36666 37.9275 2.01666 37.2581 2.01666C36.4616 2.01666 35.9024 2.52499 35.9024 3.16666C35.9024 3.79166 36.2837 4.10832 36.9446 4.28332L37.4869 4.40832C37.8004 4.47499 38.0292 4.62499 38.0292 4.91665C38.0292 5.23332 37.7326 5.47498 37.2327 5.47498C36.7497 5.47498 36.4532 5.19999 36.4447 4.86665H35.7584C35.7923 5.66665 36.521 6.10832 37.2327 6.10832Z" fill="#31456A"/>
</g>
</svg>
