<svg width="28" height="12" viewBox="0 0 28 12" fill="none" xmlns="http://www.w3.org/2000/svg">
<g id="24%" filter="url(#filter0_i_31_433)">
<path d="M3.26463 9.75008L6.05068 6.55609C6.76855 5.73237 7.29841 4.70693 7.29841 3.74874C7.29841 1.7651 5.87975 0.437072 3.69194 0.437072C1.57249 0.437072 0.256385 1.69786 0 3.54701L1.79469 3.88322C1.89725 2.90821 2.56384 2.2526 3.62357 2.2526C4.63201 2.2526 5.29861 2.84097 5.29861 3.71511C5.29861 4.15219 4.93968 4.82461 4.37563 5.49703L0.0854609 10.5906V11.5824H7.45224V9.75008H3.26463Z" fill="#6F7C86"/>
<path d="M17.353 7.64877H15.6779V0.571556H14.772L8.17439 8.89274V9.41387H13.6781V11.5824H15.6779V9.41387H17.353V7.64877ZM11.1655 7.64877L13.6781 4.4884V7.64877H11.1655Z" fill="#6F7C86"/>
<path d="M19.7102 11.5824H20.8725L26.6497 0H25.4874L19.7102 11.5824ZM20.5307 4.79099C21.7955 4.79099 22.821 3.81598 22.821 2.55519C22.821 1.31122 21.7955 0.302589 20.5307 0.302589C19.2487 0.302589 18.2574 1.31122 18.2574 2.55519C18.2574 3.81598 19.2487 4.79099 20.5307 4.79099ZM20.5307 3.61425C19.9153 3.61425 19.4538 3.16037 19.4538 2.55519C19.4538 1.96683 19.9153 1.47932 20.5307 1.47932C21.1289 1.47932 21.6246 1.96683 21.6246 2.55519C21.6246 3.16037 21.1289 3.61425 20.5307 3.61425ZM25.7096 11.7505C26.9745 11.7505 28 10.7755 28 9.51473C28 8.27075 26.9745 7.26213 25.7096 7.26213C24.4277 7.26213 23.4364 8.27075 23.4364 9.51473C23.4364 10.7755 24.4277 11.7505 25.7096 11.7505ZM25.7096 10.5738C25.0772 10.5738 24.6328 10.1199 24.6328 9.51473C24.6328 8.90955 25.0772 8.43886 25.7096 8.43886C26.3079 8.43886 26.8035 8.90955 26.8035 9.51473C26.8035 10.1199 26.3079 10.5738 25.7096 10.5738Z" fill="#6F7C86"/>
</g>
<defs>
<filter id="filter0_i_31_433" x="0" y="0" width="29.009" height="12.7595" filterUnits="userSpaceOnUse" color-interpolation-filters="sRGB">
<feFlood flood-opacity="0" result="BackgroundImageFix"/>
<feBlend mode="normal" in="SourceGraphic" in2="BackgroundImageFix" result="shape"/>
<feColorMatrix in="SourceAlpha" type="matrix" values="0 0 0 0 0 0 0 0 0 0 0 0 0 0 0 0 0 0 127 0" result="hardAlpha"/>
<feOffset dx="1" dy="1"/>
<feGaussianBlur stdDeviation="1"/>
<feComposite in2="hardAlpha" operator="arithmetic" k2="-1" k3="1"/>
<feColorMatrix type="matrix" values="0 0 0 0 0 0 0 0 0 0 0 0 0 0 0 0 0 0 0.19534 0"/>
<feBlend mode="normal" in2="shape" result="effect1_innerShadow_31_433"/>
</filter>
</defs>
</svg>
