<svg width="42" height="44" viewBox="0 0 42 44" fill="none" xmlns="http://www.w3.org/2000/svg">
<g id="account_circle">
<path id="icon" d="M10.2375 31.35C11.725 30.1583 13.3875 29.2187 15.225 28.5312C17.0625 27.8437 18.9875 27.5 21 27.5C23.0125 27.5 24.9375 27.8437 26.775 28.5312C28.6125 29.2187 30.275 30.1583 31.7625 31.35C32.7833 30.0972 33.5781 28.6764 34.1469 27.0875C34.7156 25.4986 35 23.8028 35 22C35 17.9361 33.6365 14.4757 30.9094 11.6187C28.1823 8.7618 24.8792 7.33333 21 7.33333C17.1208 7.33333 13.8177 8.7618 11.0906 11.6187C8.36354 14.4757 7 17.9361 7 22C7 23.8028 7.28437 25.4986 7.85313 27.0875C8.42188 28.6764 9.21667 30.0972 10.2375 31.35ZM21 23.8333C19.2792 23.8333 17.8281 23.2146 16.6469 21.9771C15.4656 20.7396 14.875 19.2194 14.875 17.4167C14.875 15.6139 15.4656 14.0937 16.6469 12.8562C17.8281 11.6187 19.2792 11 21 11C22.7208 11 24.1719 11.6187 25.3531 12.8562C26.5344 14.0937 27.125 15.6139 27.125 17.4167C27.125 19.2194 26.5344 20.7396 25.3531 21.9771C24.1719 23.2146 22.7208 23.8333 21 23.8333ZM21 40.3333C18.5792 40.3333 16.3042 39.8521 14.175 38.8896C12.0458 37.9271 10.1937 36.6208 8.61875 34.9708C7.04375 33.3208 5.79688 31.3806 4.87813 29.15C3.95937 26.9194 3.5 24.5361 3.5 22C3.5 19.4639 3.95937 17.0806 4.87813 14.85C5.79688 12.6194 7.04375 10.6792 8.61875 9.02916C10.1937 7.37916 12.0458 6.07291 14.175 5.11041C16.3042 4.14791 18.5792 3.66666 21 3.66666C23.4208 3.66666 25.6958 4.14791 27.825 5.11041C29.9542 6.07291 31.8063 7.37916 33.3813 9.02916C34.9563 10.6792 36.2031 12.6194 37.1219 14.85C38.0406 17.0806 38.5 19.4639 38.5 22C38.5 24.5361 38.0406 26.9194 37.1219 29.15C36.2031 31.3806 34.9563 33.3208 33.3813 34.9708C31.8063 36.6208 29.9542 37.9271 27.825 38.8896C25.6958 39.8521 23.4208 40.3333 21 40.3333Z" fill="#1D1B20"/>
</g>
</svg>
